<svg xmlns="http://www.w3.org/2000/svg" viewBox="0 0 32 32" role="img" aria-label="Beffroi">
  <rect width="32" height="32" rx="7" fill="#3465d8"/>
  <path fill="#fff" d="M16 6.5c-3.1 0-5.6 2.5-5.6 5.6v4.6c0 .9-.3 1.7-.9 2.3l-.6.7c-.3.3-.4.7-.2 1.1.2.4.5.6.9.6h12.8c.4 0 .8-.2.9-.6.2-.4.1-.8-.2-1.1l-.6-.7a3.4 3.4 0 0 1-.9-2.3V12c0-3.1-2.5-5.6-5.6-5.6Zm0 2c2 0 3.6 1.6 3.6 3.6v4.6c0 .7.1 1.3.4 1.9h-8c.3-.6.4-1.2.4-1.9V12c0-2 1.6-3.6 3.6-3.6Z"/>
  <path fill="#fff" d="M13.8 23.2a2.2 2.2 0 0 0 4.4 0h-4.4Z"/>
</svg>
